<svg width="226" height="137" viewBox="0 0 226 137" fill="none" xmlns="http://www.w3.org/2000/svg">
<path fill-rule="evenodd" clip-rule="evenodd" d="M55.7673 106.899C45.5442 120.731 28.4939 135.955 10.5087 136.294L10.1053 136.279C7.34863 136.179 0.587769 135.932 0 133.165C0.217163 132.811 0.461426 132.311 0.961304 132.375C1.46387 132.439 1.95142 132.503 2.42786 132.565C6.0188 133.035 8.97363 133.421 12.8921 133.267C26.9264 132.713 38.7706 121.806 48.0908 112.235C55.3115 104.46 60.7112 94.0366 66.158 83.5215C77.0403 62.5127 88.111 41.1406 114.27 39.8096C118.471 39.5962 125.817 40.062 129.831 41.1963C130.41 34.167 133.546 26.7554 137.487 20.9312C149.694 2.88721 168.972 2.93994 188.481 4.71387C190.991 4.93506 193.49 5.27979 195.965 5.75098C199.536 6.43262 219.56 10.9985 221.093 12.7622C221.324 13.0278 221.309 13.041 221.43 13.3149C220.941 15.5708 212.683 12.895 207.699 11.2798C206.165 10.7827 204.941 10.3862 204.349 10.2646C194.212 8.18262 184.981 6.47217 174.587 6.16162C151.106 6.85352 135.421 18.1099 132.649 42.3779C132.987 42.5264 133.336 42.6792 133.694 42.8354C136.201 43.9316 139.125 45.2095 141.334 46.5522C149.117 51.3867 156.661 58.6006 160.328 67.1201C161.686 70.2754 162.415 75.4185 160.972 78.5264C158.454 83.9507 152.953 84.2686 148.132 81.7852C139.368 77.271 134.593 68.228 131.628 59.2139C129.754 53.4844 129.686 50.1553 129.758 44.2891C121.002 41.9756 114.919 41.1597 105.946 43.7808C86.3715 49.4966 77.3529 67.2988 68.526 84.7227C64.5499 92.5713 60.6128 100.343 55.7673 106.899ZM158.681 70.3813C160.478 75.9448 158.741 80.8462 152.192 80.2651C143.142 78.5952 136.796 67.0308 134.365 58.9985C133.096 54.8032 132.492 49.395 132.488 45.0049L137.39 47.4028C146.423 52.1689 155.481 60.4751 158.681 70.3813Z" fill="#E25AAB"/>
<path d="M209.671 21.4766C211.345 21.2555 213.434 20.5186 215.062 19.8869C220.36 17.8367 231.193 16.5024 222.765 9.1043C219.326 6.08822 215.379 2.73787 211.485 0.142885C210.204 -0.0518703 209.941 -0.143972 209.03 0.519251C208.718 3.46164 221.927 9.31748 222.31 13.3547C222.612 16.5524 211.257 16.9998 209.365 19.4027C209.244 20.3159 209.403 20.6054 209.671 21.4766Z" fill="#E25AAB"/>
</svg>
