<svg width="167" height="109" viewBox="0 0 167 109" fill="none" xmlns="http://www.w3.org/2000/svg">
<path d="M107.884 15.8044C78.3195 26.3049 94.919 65.1995 80.4444 86.5848C73.9641 96.1589 62.6795 101.702 51.6403 104.289C41.9046 106.57 25.5701 105.994 15.9268 103.754C12.5015 102.958 7.66575 101.136 4.37464 99.7426C3.28058 99.2794 1.49725 97.7898 0.632693 97.9748C0.159226 98.6754 0.0718491 98.6646 0 99.4826C1.57331 102.962 11.7088 105.144 15.4173 106.141C36.5488 111.968 66.1028 108.255 80.9205 90.5525C93.9405 74.9981 87.4135 50.1157 94.3482 32.0087C97.4979 23.785 102.522 21.0194 110.011 17.6499C109.383 16.3616 109.383 15.9771 107.884 15.8044Z" fill="#E25AAB"/>
<path d="M161.26 17.8124C158.77 19.0357 156.227 20.1461 153.637 21.1401C151.402 22.0202 149.018 22.4347 147.55 24.4155L147.448 24.9742C147.909 25.4745 148.219 25.5079 148.872 25.5506C150.862 25.6803 162.923 20.5251 164.395 19.0141C165.151 18.2385 165.613 17.2276 166.098 16.2723C164.277 10.7346 161.024 7.25195 156.918 3.22577C155.74 2.07092 153.84 -0.343803 152.112 0.0412331C151.574 0.654715 151.644 0.796309 151.556 1.61139C152.01 2.65938 155.727 5.47677 157.059 7.00244C159.671 9.9951 161.321 12.4014 163.532 15.7015C151.042 12.6933 142.363 11.7998 129.352 12.3059C125.491 12.4561 122.246 12.4114 118.386 13.1151C118.393 13.7865 118.337 14.4587 118.298 15.1303C118.815 15.8304 118.813 15.6083 120.016 15.7962C130.975 14.1618 140.074 14.3797 151.018 16.0057C154.761 16.5621 157.537 16.6629 161.26 17.8124Z" fill="#E25AAB"/>
<path d="M110.011 17.6497C113.52 16.5561 116.377 16.2643 120.016 15.7958C118.813 15.6079 118.815 15.83 118.298 15.1299C118.337 14.4583 118.393 13.7861 118.386 13.1147C114.409 13.7595 111.671 14.5833 107.885 15.8042C109.383 15.9769 109.383 16.3614 110.011 17.6497Z" fill="#E25AAB"/>
</svg>
