<svg width="184" height="155" viewBox="0 0 184 155" fill="none" xmlns="http://www.w3.org/2000/svg">
<path fill-rule="evenodd" clip-rule="evenodd" d="M180.691 0.0156569C180.175 0.0861634 179.784 0.139306 179.259 0.265852C179.047 0.978432 179.449 3.8503 179.784 6.24509C179.965 7.53559 180.126 8.68778 180.162 9.28912C180.738 19.0665 178.733 28.8646 175.631 38.1075C167.639 61.9255 155.49 81.8162 134.129 95.678C132.659 96.6394 131.149 97.5358 129.605 98.371C131.722 88.6303 129.708 75.3559 117.985 72.8707C108.069 70.7687 98.3661 77.8565 96.27 87.5502C94.4461 95.9785 99.9258 104.427 108.591 105.591C114.294 106.466 119.043 105.742 124.517 103.927C123.652 105.324 122.875 106.673 122.115 107.995C120.347 111.068 118.664 113.994 116.136 117.045C101.028 135.274 74.5005 145.346 51.1468 142.693C37.4254 141.133 14.7939 136.363 5.35062 126.024C7.99103 125.753 9.94894 125.652 12.5986 125.581C12.8988 125.578 13.2831 125.578 13.7302 125.579C17.1179 125.582 24.1122 125.587 25.4751 124.36C25.8816 123.168 25.1289 121.683 24.1605 121.77C16.3217 122.478 8.93429 122.875 1.02325 122.638L-9.23663e-05 125.318C1.23397 129.822 2.8789 134.132 4.52609 138.448C5.735 141.615 6.94523 144.786 7.99519 148.04C8.04664 148.199 8.10329 148.384 8.16567 148.588C8.80422 150.672 10.0476 154.732 12.6415 154.037C13.6326 152.761 12.8609 150.975 12.2035 149.453C12.0602 149.121 11.9225 148.802 11.8096 148.504C11.002 146.372 10.1222 144.242 9.23988 142.107C7.54239 137.998 5.83582 133.868 4.61775 129.652C21.7237 143.464 54.5895 149.485 76.0051 144.19C91.9604 140.246 108.341 131.994 118.636 118.911C122.68 113.881 124.331 110.632 126.539 106.288C127.203 104.982 127.916 103.578 128.76 101.996C150.892 92.3549 167.101 69.2129 175.548 47.2943C180.928 33.3301 186.3 15.8454 181.895 1.02418C181.697 0.355804 181.344 0.250874 180.807 8.98887e-05L180.691 0.0156569ZM107.828 77.4287C114.08 74.798 120.518 74.6526 124.634 80.9261C128.417 86.6937 127.279 93.4697 126.08 99.8353C123.447 100.87 120.861 101.548 118.14 102.276C107.232 104.852 95.1792 98.6187 99.8911 86.0714C101.298 82.2586 104.15 79.1545 107.828 77.4287Z" fill="#E25AAB"/>
</svg>
